<svg xmlns="http://www.w3.org/2000/svg" xmlns:xlink="http://www.w3.org/1999/xlink" width="500" zoomAndPan="magnify" viewBox="0 0 375 374.999991" height="500" preserveAspectRatio="xMidYMid meet" version="1.0"><defs><g/><clipPath id="4767c8e0d9"><path d="M 57.515625 57.515625 L 317.484375 57.515625 L 317.484375 317.484375 L 57.515625 317.484375 Z M 57.515625 57.515625 " clip-rule="nonzero"/></clipPath><clipPath id="caf5f63286"><path d="M 187.5 57.515625 C 115.710938 57.515625 57.515625 115.710938 57.515625 187.5 C 57.515625 259.289062 115.710938 317.484375 187.5 317.484375 C 259.289062 317.484375 317.484375 259.289062 317.484375 187.5 C 317.484375 115.710938 259.289062 57.515625 187.5 57.515625 Z M 187.5 57.515625 " clip-rule="nonzero"/></clipPath><clipPath id="d3f47874e8"><path d="M 69.78125 96.539062 L 305.222656 96.539062 L 305.222656 212.789062 L 69.78125 212.789062 Z M 69.78125 96.539062 " clip-rule="nonzero"/></clipPath></defs><rect x="-37.5" width="450" fill="#ffffff" y="-37.499999" height="449.999989" fill-opacity="1"/><rect x="-37.5" width="450" fill="#ffffff" y="-37.499999" height="449.999989" fill-opacity="1"/><g clip-path="url(#4767c8e0d9)"><g clip-path="url(#caf5f63286)"><path fill="#fcc8d1" d="M 57.515625 57.515625 L 317.484375 57.515625 L 317.484375 317.484375 L 57.515625 317.484375 Z M 57.515625 57.515625 " fill-opacity="1" fill-rule="nonzero"/></g></g><g clip-path="url(#d3f47874e8)"><path fill="#d14d72" d="M 192.050781 144.535156 C 198.09375 149.050781 216.113281 156.507812 235.878906 164.691406 C 268.273438 178.097656 305.222656 193.390625 305.222656 203.496094 C 305.222656 209.230469 295.523438 212.789062 270.6875 212.789062 L 267.949219 212.789062 L 267.949219 208.003906 L 270.6875 208.003906 C 292.082031 208.003906 300.433594 206.277344 300.433594 203.496094 C 300.433594 196.574219 265.070312 181.9375 234.0625 169.105469 C 214.746094 161.109375 197.070312 153.792969 189.886719 148.84375 C 183.117188 153.289062 165.738281 160.066406 146.308594 167.644531 C 113.460938 180.457031 74.570312 195.625 74.570312 202.960938 C 74.570312 205.96875 83.667969 207.890625 107.054688 207.996094 L 107.054688 212.785156 C 80.214844 212.601562 69.78125 208.84375 69.78125 202.960938 C 69.78125 192.367188 110.324219 176.550781 144.570312 163.195312 C 163.957031 155.632812 181.261719 148.882812 187.261719 144.878906 L 187.261719 129.988281 C 183.699219 129.414062 180.507812 127.71875 178.066406 125.273438 C 175.019531 122.230469 173.132812 118.019531 173.132812 113.371094 C 173.132812 108.722656 175.019531 104.515625 178.066406 101.46875 C 181.109375 98.421875 185.320312 96.539062 189.96875 96.539062 C 194.617188 96.539062 198.824219 98.421875 201.871094 101.46875 C 204.917969 104.515625 206.800781 108.722656 206.800781 113.371094 C 206.800781 114.695312 205.730469 115.765625 204.40625 115.765625 C 203.085938 115.765625 202.015625 114.695312 202.015625 113.371094 C 202.015625 110.046875 200.664062 107.035156 198.484375 104.855469 C 196.304688 102.675781 193.292969 101.324219 189.96875 101.324219 C 186.640625 101.324219 183.628906 102.675781 181.449219 104.855469 C 179.269531 107.035156 177.921875 110.046875 177.921875 113.371094 C 177.921875 116.699219 179.269531 119.710938 181.449219 121.890625 C 183.628906 124.070312 186.640625 125.417969 189.96875 125.417969 C 191.289062 125.417969 192.359375 126.492188 192.359375 127.8125 C 192.359375 128.242188 192.246094 128.644531 192.050781 128.996094 L 192.050781 144.535156 " fill-opacity="1" fill-rule="nonzero"/></g><g fill="#d14d72" fill-opacity="1"><g transform="translate(102.105067, 253.216039)"><g><path d="M 33.289062 -53.640625 C 33.164062 -53.628906 33.03125 -53.683594 32.90625 -53.671875 C 32.777344 -53.660156 32.648438 -53.714844 32.582031 -53.707031 L 32.519531 -53.703125 C 32.144531 -53.605469 31.777344 -53.445312 31.539062 -53.234375 C 31.246094 -52.957031 31.078125 -52.6875 30.984375 -52.296875 C 30.839844 -51.773438 30.667969 -50.039062 30.414062 -47.085938 C 30.101562 -44.066406 29.859375 -40.921875 29.636719 -37.589844 C 29.449219 -35.34375 29.25 -33.226562 29.164062 -31.242188 C 29.023438 -29.191406 28.902344 -27.652344 28.871094 -26.503906 C 28.84375 -26.117188 28.8125 -25.734375 28.769531 -25.476562 C 28.671875 -25.148438 28.625 -24.953125 28.628906 -24.890625 C 28.511719 -24.753906 27.824219 -24.628906 26.570312 -24.394531 C 25.316406 -24.160156 23.933594 -23.910156 22.480469 -23.785156 C 21.289062 -23.558594 20.152344 -23.460938 19.140625 -23.371094 C 18.070312 -23.214844 17.375 -23.15625 16.984375 -23.25 C 16.277344 -23.316406 15.882812 -23.472656 15.859375 -23.726562 C 15.839844 -23.980469 15.933594 -25.070312 16.152344 -27 C 16.8125 -32.664062 16.527344 -37.417969 15.242188 -41.257812 C 13.96875 -44.96875 11.933594 -47.152344 9.078125 -47.734375 C 6.621094 -48.160156 4.398438 -47.332031 2.355469 -45.179688 C 0.253906 -42.960938 -1.089844 -40.042969 -1.605469 -36.429688 C -1.8125 -35.136719 -1.816406 -33.671875 -1.617188 -32.097656 C -1.472656 -30.453125 -1.105469 -29.148438 -0.640625 -28.167969 C 0.167969 -26.199219 1.394531 -24.519531 3.03125 -23.257812 C 4.617188 -21.867188 6.546875 -20.886719 8.761719 -20.3125 C 9.292969 -20.101562 9.75 -19.953125 10.140625 -19.859375 C 10.542969 -19.636719 10.742188 -19.527344 10.746094 -19.464844 C 10.765625 -19.273438 10.679688 -18.757812 10.378906 -17.839844 C 10.074219 -16.921875 9.78125 -15.878906 9.363281 -14.820312 C 9.164062 -14.167969 8.898438 -13.570312 8.6875 -13.042969 C 8.484375 -12.453125 8.273438 -11.925781 8.054688 -11.523438 C 7.089844 -9.402344 5.921875 -7.453125 4.671875 -5.691406 C 3.367188 -3.792969 2.089844 -2.347656 0.839844 -1.347656 C 0.601562 -1.136719 0.183594 -0.84375 -0.359375 -0.480469 L -2.054688 0.558594 C -3.085938 1.15625 -3.742188 1.660156 -3.972656 1.933594 C -4.261719 2.277344 -4.351562 2.730469 -4.304688 3.300781 C -4.257812 3.808594 -4.035156 4.171875 -3.636719 4.390625 C -3.285156 4.742188 -2.832031 4.832031 -2.328125 4.789062 C -1.882812 4.75 -0.90625 4.28125 0.546875 3.394531 C 2 2.503906 3.140625 1.703125 3.964844 0.933594 C 5.976562 -0.898438 7.917969 -3.484375 9.746094 -6.699219 C 11.570312 -9.914062 13 -13.289062 14.085938 -16.949219 C 14.230469 -17.46875 14.382812 -17.929688 14.535156 -18.386719 C 14.628906 -18.777344 14.734375 -19.042969 14.855469 -19.117188 C 14.84375 -19.242188 15.089844 -19.328125 15.597656 -19.371094 C 15.976562 -19.40625 16.671875 -19.464844 17.683594 -19.550781 C 18.386719 -19.546875 19.398438 -19.636719 20.726562 -19.75 C 21.992188 -19.859375 23.1875 -20.023438 24.3125 -20.25 C 25.574219 -20.421875 26.578125 -20.570312 27.339844 -20.636719 C 27.972656 -20.691406 28.355469 -20.660156 28.417969 -20.667969 C 28.429688 -20.539062 28.460938 -20.160156 28.515625 -19.527344 C 28.515625 -18.828125 28.515625 -18.0625 28.464844 -17.167969 C 28.394531 -15.757812 28.425781 -13.914062 28.554688 -11.695312 C 28.625 -9.40625 28.738281 -7.316406 28.914062 -5.292969 C 29.011719 -4.152344 29.097656 -3.140625 29.238281 -2.261719 C 29.324219 -1.25 29.390625 -0.492188 29.503906 0.0742188 C 29.878906 2.207031 30.265625 3.765625 30.617188 4.882812 C 30.910156 6.066406 31.230469 6.804688 31.566406 7.03125 C 31.980469 7.378906 32.4375 7.527344 32.9375 7.421875 C 33.445312 7.378906 33.871094 7.152344 34.21875 6.738281 C 34.449219 6.464844 34.605469 6.066406 34.574219 5.6875 C 34.546875 5.371094 34.257812 4.25 33.769531 2.253906 C 33.570312 1.441406 33.335938 0.1875 33.125 -1.511719 C 32.859375 -3.148438 32.710938 -4.855469 32.5625 -6.5625 C 32.425781 -7.441406 32.347656 -8.328125 32.335938 -9.21875 C 32.269531 -9.976562 32.203125 -10.734375 32.214844 -11.375 C 32.210938 -12.136719 32.21875 -12.773438 32.234375 -13.351562 C 32.183594 -13.917969 32.222656 -14.242188 32.285156 -14.246094 C 32.285156 -14.246094 32.53125 -14.332031 32.902344 -14.492188 C 33.273438 -14.585938 33.710938 -14.6875 34.269531 -14.863281 C 36.078125 -15.335938 37.488281 -15.96875 38.570312 -16.699219 C 39.660156 -17.367188 40.414062 -18.257812 40.894531 -19.320312 C 41.109375 -19.785156 41.203125 -20.175781 41.238281 -20.496094 C 41.226562 -20.621094 41.28125 -20.753906 41.265625 -20.945312 C 41.253906 -21.070312 41.175781 -21.253906 41.15625 -21.445312 C 40.933594 -22.570312 40.28125 -23.472656 39.210938 -24.078125 C 38.140625 -24.6875 36.710938 -25.011719 34.917969 -25.113281 C 34.40625 -25.132812 33.894531 -25.152344 33.503906 -25.246094 C 33.054688 -25.269531 32.796875 -25.3125 32.792969 -25.375 C 32.664062 -25.363281 32.675781 -26.703125 32.828125 -29.390625 C 32.984375 -32.015625 33.171875 -35.027344 33.457031 -38.367188 C 33.558594 -40.15625 33.660156 -41.949219 33.886719 -43.753906 C 33.988281 -45.546875 34.167969 -47.15625 34.289062 -48.695312 C 34.503906 -50.625 34.527344 -51.835938 34.410156 -52.464844 C 34.304688 -52.964844 33.949219 -53.378906 33.289062 -53.640625 Z M 7.050781 -43.929688 C 7.175781 -43.941406 7.234375 -44.007812 7.355469 -44.082031 L 7.671875 -44.109375 C 7.796875 -44.121094 7.992188 -44.074219 8.183594 -44.089844 C 8.320312 -43.972656 8.515625 -43.925781 8.773438 -43.886719 C 9.964844 -43.351562 10.960938 -42.164062 11.636719 -40.246094 C 12.308594 -38.328125 12.710938 -35.878906 12.714844 -32.886719 C 12.707031 -31.484375 12.589844 -29.878906 12.4375 -27.957031 C 12.285156 -26.03125 12.140625 -24.746094 11.9375 -24.152344 C 11.84375 -23.761719 11.667969 -23.558594 11.480469 -23.539062 C 11.289062 -23.523438 10.835938 -23.613281 10.050781 -23.863281 C 8.226562 -24.34375 6.632812 -25.097656 5.320312 -26.261719 C 4.015625 -27.359375 3.074219 -28.679688 2.554688 -30.289062 C 1.96875 -31.894531 1.816406 -33.667969 2.097656 -35.601562 C 2.316406 -37.46875 2.808594 -39.167969 3.636719 -40.640625 C 4.078125 -41.441406 4.59375 -42.125 5.183594 -42.683594 C 5.769531 -43.246094 6.371094 -43.679688 7.050781 -43.929688 Z M 32.300781 -19.980469 C 32.324219 -20.429688 32.425781 -20.757812 32.53125 -21.019531 C 32.640625 -21.222656 32.882812 -21.371094 33.261719 -21.402344 C 33.386719 -21.414062 33.640625 -21.433594 33.894531 -21.457031 C 34.152344 -21.414062 34.410156 -21.375 34.726562 -21.402344 C 35.496094 -21.339844 36.144531 -21.203125 36.664062 -21.121094 C 37.117188 -21.03125 37.386719 -20.863281 37.394531 -20.738281 C 37.414062 -20.546875 37.179688 -20.273438 36.761719 -19.984375 C 36.277344 -19.6875 35.792969 -19.390625 35.238281 -19.152344 C 34.375 -18.820312 33.757812 -18.578125 33.320312 -18.476562 C 32.820312 -18.371094 32.5 -18.40625 32.425781 -18.527344 C 32.355469 -18.585938 32.339844 -18.773438 32.320312 -19.027344 C 32.296875 -19.28125 32.269531 -19.597656 32.300781 -19.980469 Z M 32.300781 -19.980469 "/></g></g></g><g fill="#d14d72" fill-opacity="1"><g transform="translate(146.548407, 249.361301)"><g><path d="M 20.921875 -51.460938 C 20.273438 -51.488281 19.4375 -51.484375 18.414062 -51.453125 C 17.464844 -51.367188 16.578125 -51.292969 15.761719 -51.167969 L 15.324219 -51.097656 C 14.695312 -51 14.140625 -50.847656 13.640625 -50.769531 C 13.15625 -50.566406 12.664062 -50.425781 12.289062 -50.367188 C 9.261719 -49.183594 6.574219 -47.480469 4.222656 -45.25 C 1.824219 -42.945312 0.0234375 -40.480469 -1.222656 -37.777344 C -1.949219 -36.25 -2.484375 -34.753906 -2.761719 -33.234375 C -3.089844 -31.640625 -3.175781 -30.148438 -3.066406 -28.625 C -3.085938 -27.914062 -2.988281 -27.289062 -2.886719 -26.660156 C -2.582031 -24.714844 -2.058594 -23 -1.257812 -21.582031 C -0.296875 -19.546875 1.179688 -17.917969 3.117188 -16.613281 C 3.550781 -16.296875 3.925781 -15.96875 4.214844 -15.757812 C 4.515625 -15.484375 4.667969 -15.316406 4.667969 -15.316406 C 4.75 -14.8125 5.019531 -13.890625 5.558594 -12.5 C 6.046875 -11.035156 6.390625 -10.058594 6.730469 -9.535156 C 7.957031 -7.027344 9.609375 -5.101562 11.628906 -3.683594 C 13.660156 -2.203125 15.84375 -1.386719 18.242188 -1.25 C 19.285156 -1.15625 20.300781 -1.25 21.300781 -1.40625 C 24.0625 -1.839844 26.757812 -3.097656 29.367188 -5.304688 C 32.902344 -8.167969 35.441406 -12.035156 37.066406 -16.851562 C 37.496094 -18.203125 37.878906 -19.871094 38.230469 -21.726562 C 38.53125 -23.507812 38.714844 -25.207031 38.730469 -26.75 C 38.785156 -27.207031 38.761719 -27.78125 38.714844 -28.480469 C 38.617188 -29.109375 38.570312 -29.808594 38.515625 -30.570312 C 38.390625 -31.386719 38.316406 -32.273438 38.175781 -33.152344 L 37.933594 -34.71875 C 37.652344 -36.089844 37.359375 -37.136719 37.136719 -37.742188 C 35.621094 -41.683594 33.386719 -44.867188 30.5625 -47.316406 C 27.75 -49.703125 24.515625 -51.058594 20.921875 -51.460938 Z M 5.058594 -40.753906 C 6.753906 -42.625 8.574219 -44.128906 10.507812 -45.332031 C 12.398438 -46.398438 14.523438 -47.183594 16.78125 -47.535156 C 20.292969 -48.085938 23.542969 -47.4375 26.519531 -45.65625 C 29.445312 -43.800781 31.671875 -41.0625 33.28125 -37.332031 C 33.8125 -36.003906 34.273438 -34.277344 34.617188 -32.082031 C 34.972656 -29.824219 35.078125 -27.914062 35 -26.359375 C 34.679688 -21.425781 33.488281 -17.128906 31.417969 -13.527344 C 29.296875 -9.855469 26.609375 -7.3125 23.234375 -5.886719 C 21.96875 -5.367188 20.796875 -5.054688 19.773438 -5.023438 C 18.632812 -4.910156 17.457031 -5.046875 16.230469 -5.496094 C 14.886719 -5.863281 13.601562 -6.691406 12.363281 -8.039062 C 11.070312 -9.3125 10.136719 -10.773438 9.566406 -12.355469 C 9.167969 -13.257812 9.078125 -13.820312 9.1875 -13.964844 C 9.292969 -14.109375 9.855469 -14.199219 10.824219 -14.160156 C 11.796875 -14.117188 13.058594 -14.25 14.617188 -14.558594 C 16.121094 -14.792969 17.285156 -15.167969 18.175781 -15.628906 C 20.703125 -16.734375 22.871094 -18.484375 24.550781 -20.867188 C 26.234375 -23.253906 27.230469 -25.914062 27.550781 -28.789062 C 27.636719 -29.894531 27.554688 -31.234375 27.363281 -32.875 C 27.128906 -34.378906 26.796875 -35.675781 26.386719 -36.640625 C 25.683594 -38.265625 24.757812 -39.660156 23.539062 -40.882812 C 22.339844 -41.980469 20.980469 -42.859375 19.484375 -43.398438 C 18.546875 -43.636719 17.878906 -43.789062 17.496094 -43.792969 C 17.054688 -43.722656 16.636719 -43.53125 16.300781 -43.21875 C 16.085938 -42.929688 15.992188 -42.722656 15.949219 -42.585938 C 15.851562 -42.378906 15.890625 -42.128906 15.949219 -41.75 C 16.03125 -41.25 16.152344 -40.882812 16.441406 -40.671875 C 16.667969 -40.449219 17.21875 -40.214844 18.101562 -39.902344 C 19.683594 -39.253906 20.914062 -38.351562 21.8125 -37.144531 C 22.707031 -35.933594 23.339844 -34.363281 23.644531 -32.417969 C 23.917969 -30.664062 23.859375 -28.984375 23.511719 -27.515625 C 23.109375 -25.976562 22.386719 -24.449219 21.328125 -22.996094 C 20.269531 -21.546875 18.976562 -20.382812 17.503906 -19.507812 C 16.035156 -18.636719 14.445312 -18.128906 12.730469 -17.992188 C 11.71875 -17.894531 10.75 -17.9375 9.832031 -18.050781 C 8.851562 -18.152344 8.308594 -18.328125 8.144531 -18.558594 C 7.992188 -18.726562 7.863281 -19.542969 7.835938 -20.949219 C 7.746094 -22.347656 7.707031 -23.820312 7.742188 -25.238281 C 7.777344 -26.660156 7.9375 -28.097656 8.179688 -29.421875 C 8.359375 -30.734375 8.601562 -32.054688 8.925781 -33.265625 C 9.101562 -33.804688 9.21875 -34.273438 9.328125 -34.804688 C 9.386719 -35.261719 9.460938 -35.597656 9.441406 -35.722656 C 9.394531 -36.035156 9.082031 -36.371094 8.574219 -36.742188 C 8.078125 -37.050781 7.664062 -37.242188 7.347656 -37.191406 C 6.847656 -37.113281 6.492188 -36.929688 6.269531 -36.703125 C 5.996094 -36.402344 5.75 -35.914062 5.585938 -35.3125 C 5.0625 -33.75 4.707031 -31.898438 4.40625 -29.730469 C 4.113281 -27.5 3.914062 -25.476562 3.957031 -23.554688 C 3.929688 -22.910156 3.945312 -22.398438 3.953125 -21.949219 C 3.894531 -21.488281 3.871094 -21.230469 3.871094 -21.230469 C 3.765625 -21.085938 3.570312 -21.117188 3.402344 -21.347656 C 3.113281 -21.558594 2.867188 -21.90625 2.601562 -22.378906 C 0.914062 -24.941406 0.378906 -27.941406 0.855469 -31.484375 C 1.273438 -34.957031 2.652344 -38.0625 5.058594 -40.753906 Z M 5.058594 -40.753906 "/></g></g></g><g fill="#d14d72" fill-opacity="1"><g transform="translate(191.450377, 242.184869)"><g><path d="M 17.996094 -56.457031 L 17.5625 -56.359375 L 17.378906 -56.316406 L 17.128906 -56.261719 C 14.851562 -55.6875 12.761719 -54.566406 10.78125 -52.953125 C 8.800781 -51.339844 6.835938 -49.078125 5.007812 -46.199219 C 4.140625 -44.832031 3.46875 -43.773438 3.023438 -43.152344 C 2.308594 -42.859375 1.714844 -42.597656 1.34375 -42.515625 C -1.640625 -41.328125 -3.863281 -39.917969 -5.320312 -38.292969 C -6.824219 -36.589844 -7.347656 -34.84375 -6.945312 -33.050781 C -6.722656 -32.058594 -6.265625 -31.183594 -5.46875 -30.519531 C -4.667969 -29.851562 -3.660156 -29.425781 -2.375 -29.195312 C -2.234375 -29.160156 -2.097656 -29.125 -1.945312 -29.03125 C -1.792969 -28.933594 -1.71875 -28.886719 -1.703125 -28.824219 C -1.691406 -28.761719 -1.757812 -28.484375 -1.773438 -27.964844 L -1.957031 -26.164062 C -2.328125 -23.480469 -2.492188 -21.296875 -2.476562 -19.480469 C -2.445312 -17.601562 -2.214844 -15.699219 -1.785156 -13.78125 C -1.425781 -12.167969 -1.070312 -10.882812 -0.601562 -9.949219 C -0.191406 -8.996094 0.488281 -7.980469 1.386719 -6.878906 C 2.925781 -4.949219 4.875 -3.5 7.191406 -2.457031 C 9.445312 -1.398438 11.910156 -0.84375 14.621094 -0.933594 C 15.542969 -0.878906 16.859375 -1.109375 18.59375 -1.496094 C 20.203125 -1.855469 21.550781 -2.222656 22.503906 -2.632812 C 24.523438 -3.472656 26.449219 -4.75 28.308594 -6.335938 C 30.039062 -7.894531 31.703125 -9.765625 33.171875 -11.914062 C 33.558594 -12.523438 33.84375 -12.976562 33.914062 -13.25 C 33.996094 -13.464844 34.0625 -13.742188 33.980469 -14.113281 C 33.871094 -14.609375 33.574219 -15.0625 33.179688 -15.363281 C 32.738281 -15.589844 32.265625 -15.679688 31.769531 -15.570312 C 31.460938 -15.5 31.175781 -15.304688 30.957031 -15.125 C 30.6875 -14.871094 30.277344 -14.390625 29.78125 -13.691406 C 28.601562 -11.996094 27.363281 -10.550781 26.121094 -9.425781 C 24.828125 -8.226562 23.417969 -7.257812 21.890625 -6.527344 C 19.488281 -5.339844 17.023438 -4.722656 14.484375 -4.738281 C 11.894531 -4.679688 9.617188 -5.273438 7.597656 -6.449219 C 5.289062 -7.753906 3.640625 -9.597656 2.667969 -11.914062 C 1.628906 -14.21875 1.210938 -17.25 1.300781 -20.910156 C 1.300781 -22.082031 1.457031 -23.417969 1.632812 -24.953125 C 1.808594 -26.488281 2.007812 -27.636719 2.226562 -28.402344 C 2.265625 -28.800781 2.335938 -29.078125 2.417969 -29.292969 C 3.472656 -29.527344 4.261719 -29.769531 4.804688 -29.957031 C 6.761719 -30.523438 8.671875 -31.277344 10.65625 -32.304688 C 12.527344 -33.246094 14.402344 -34.445312 16.175781 -35.820312 C 18.671875 -37.746094 20.777344 -39.972656 22.5625 -42.453125 C 24.347656 -44.933594 25.390625 -47.25 25.703125 -49.335938 C 25.855469 -50.410156 25.769531 -51.367188 25.578125 -52.234375 L 25.382812 -53.101562 C 24.945312 -54.175781 24.242188 -54.992188 23.304688 -55.691406 C 22.484375 -56.160156 21.695312 -56.503906 20.957031 -56.597656 C 20.21875 -56.695312 19.25 -56.671875 17.996094 -56.457031 Z M 5.742188 -39.726562 C 7.207031 -43.046875 9.160156 -45.957031 11.46875 -48.425781 C 13.804688 -50.769531 16.011719 -52.238281 18.242188 -52.738281 C 20.347656 -53.210938 21.554688 -52.765625 21.90625 -51.476562 C 22.273438 -50.128906 21.660156 -48.234375 20.148438 -45.683594 C 19.390625 -44.410156 18.546875 -43.246094 17.660156 -42.265625 C 16.726562 -41.210938 15.652344 -40.191406 14.382812 -39.191406 C 13.34375 -38.308594 12.386719 -37.636719 11.589844 -37.132812 C 10.742188 -36.554688 9.699219 -35.996094 8.527344 -35.40625 C 7.375 -34.757812 6.300781 -34.324219 5.324219 -34.039062 C 4.359375 -33.695312 3.800781 -33.570312 3.746094 -33.816406 C 3.59375 -33.914062 3.765625 -34.601562 4.210938 -35.808594 C 4.609375 -36.9375 5.089844 -38.28125 5.742188 -39.726562 Z M -0.976562 -37.183594 C -0.570312 -37.402344 -0.226562 -37.609375 -0.00390625 -37.789062 C 0.230469 -37.90625 0.402344 -38.011719 0.523438 -38.039062 C 0.585938 -38.054688 0.664062 -38.003906 0.664062 -38.003906 C 0.664062 -38.003906 0.738281 -37.957031 0.753906 -37.894531 C 0.765625 -37.832031 0.699219 -37.558594 0.546875 -37.066406 C 0.410156 -36.515625 0.210938 -35.953125 0.0390625 -35.261719 C -0.191406 -34.5625 -0.328125 -34.011719 -0.492188 -33.582031 C -0.707031 -33.078125 -0.851562 -32.851562 -0.914062 -32.839844 C -1.160156 -32.78125 -1.421875 -32.789062 -1.773438 -32.90625 C -2.171875 -32.945312 -2.523438 -33.0625 -2.765625 -33.269531 C -3.34375 -33.53125 -3.40625 -34.101562 -3.0625 -34.894531 C -2.707031 -35.625 -2.039062 -36.421875 -0.976562 -37.183594 Z M -0.976562 -37.183594 "/></g></g></g><g fill="#d14d72" fill-opacity="1"><g transform="translate(229.516263, 233.775524)"><g><path d="M 50.265625 -9.757812 C 50.527344 -9.765625 50.953125 -9.894531 51.441406 -10.039062 C 51.925781 -10.179688 52.351562 -10.308594 52.699219 -10.476562 C 53.308594 -10.65625 53.734375 -10.78125 53.941406 -10.976562 C 54.167969 -11.109375 54.296875 -11.34375 54.46875 -11.660156 C 54.597656 -11.898438 54.664062 -12.113281 54.730469 -12.332031 C 54.695312 -12.457031 54.703125 -12.65625 54.632812 -12.898438 L 54.578125 -13.082031 C 54.335938 -13.671875 53.96875 -14.027344 53.53125 -14.164062 C 53.03125 -14.28125 52.265625 -14.1875 51.230469 -13.878906 C 49.527344 -13.375 47.714844 -13.238281 45.8125 -13.40625 C 43.867188 -13.492188 41.671875 -13.96875 39.25 -14.773438 C 38.59375 -14.980469 37.328125 -15.464844 35.347656 -16.335938 C 33.371094 -17.207031 31.3125 -18.121094 29.175781 -19.078125 C 25.21875 -20.820312 22.390625 -22.105469 20.632812 -22.90625 C 18.847656 -23.570312 17.238281 -24.089844 15.945312 -24.433594 C 15.226562 -24.621094 14.730469 -24.738281 14.433594 -24.847656 C 14.324219 -25.214844 14.296875 -25.535156 14.222656 -25.78125 C 14.152344 -26.023438 14.082031 -26.265625 14.128906 -26.546875 C 14.058594 -26.789062 14.082031 -26.929688 14.167969 -27.085938 C 14.152344 -27.148438 14.339844 -27.402344 14.753906 -27.789062 C 15.109375 -28.160156 15.523438 -28.546875 16.042969 -29.03125 C 19.15625 -31.9375 21.839844 -35.179688 24.125 -38.632812 C 26.414062 -42.089844 28.394531 -45.917969 30.066406 -50.117188 C 30.902344 -52.21875 31.367188 -53.546875 31.527344 -54.125 C 31.648438 -54.621094 31.582031 -55.066406 31.457031 -55.492188 C 31.269531 -55.902344 30.976562 -56.210938 30.503906 -56.46875 C 29.988281 -56.648438 29.527344 -56.644531 29.039062 -56.5 C 28.816406 -56.367188 28.605469 -56.171875 28.417969 -55.917969 C 28.246094 -55.605469 27.945312 -55.050781 27.640625 -54.300781 C 26.273438 -50.851562 24.96875 -47.882812 23.71875 -45.394531 C 22.40625 -42.890625 21.082031 -40.648438 19.652344 -38.769531 C 19.394531 -38.296875 19 -37.847656 18.617188 -37.335938 C 18.179688 -36.808594 17.722656 -36.34375 17.28125 -35.816406 C 16.503906 -34.859375 15.691406 -34.023438 14.984375 -33.285156 C 14.277344 -32.546875 13.84375 -32.21875 13.746094 -32.324219 C 13.605469 -32.347656 13.40625 -33.480469 13.246094 -35.816406 C 13.039062 -38.070312 12.820312 -41.050781 12.632812 -44.835938 C 12.449219 -47.691406 12.351562 -49.582031 12.1875 -50.59375 C 12.039062 -51.542969 11.867188 -52.351562 11.546875 -52.984375 C 11.09375 -53.84375 10.46875 -54.386719 9.691406 -54.554688 C 9.210938 -54.613281 8.75 -54.609375 8.261719 -54.464844 C 7.835938 -54.339844 7.445312 -54.089844 6.996094 -53.824219 C 6.171875 -53.25 5.160156 -52.421875 3.957031 -51.339844 C 2.714844 -50.175781 1.46875 -49.015625 0.320312 -47.75 C -0.328125 -47.027344 -0.933594 -46.386719 -1.414062 -45.78125 C -2 -45.078125 -2.503906 -44.53125 -2.882812 -44.023438 C -5.035156 -41.003906 -6.472656 -38.261719 -7.082031 -35.832031 C -7.679688 -33.605469 -7.652344 -31.496094 -7.074219 -29.546875 C -7.003906 -29.304688 -6.933594 -29.058594 -6.800781 -28.835938 C -6.136719 -27.042969 -5.042969 -25.582031 -3.550781 -24.566406 C -2.085938 -23.410156 -0.238281 -22.761719 1.960938 -22.488281 C 2.238281 -22.4375 2.578125 -22.40625 2.960938 -22.453125 C 3.242188 -22.402344 3.484375 -22.472656 3.667969 -22.527344 C 3.972656 -22.617188 4.265625 -22.96875 4.503906 -23.503906 C 4.746094 -24.039062 4.820312 -24.457031 4.710938 -24.824219 C 4.542969 -25.167969 4.253906 -25.480469 3.839844 -25.757812 C 3.367188 -26.011719 2.808594 -26.113281 2.25 -26.210938 C 1.566406 -26.277344 0.851562 -26.460938 0.00390625 -26.871094 C -0.8125 -27.160156 -1.460938 -27.566406 -1.910156 -27.960938 C -2.242188 -28.195312 -2.453125 -28.464844 -2.621094 -28.8125 C -2.851562 -29.140625 -3.039062 -29.546875 -3.21875 -30.15625 C -3.683594 -31.277344 -3.804688 -32.367188 -3.726562 -33.449219 C -3.632812 -34.46875 -3.226562 -35.78125 -2.488281 -37.320312 C -1.925781 -38.546875 -1.222656 -39.75 -0.5 -40.886719 C 0.257812 -41.90625 1.222656 -43.117188 2.519531 -44.558594 C 3.519531 -45.652344 4.6875 -46.855469 6.035156 -48.113281 C 7.386719 -49.375 8.128906 -49.992188 8.269531 -49.964844 C 8.410156 -49.941406 8.515625 -49.574219 8.574219 -48.929688 C 8.652344 -48.226562 8.78125 -46.210938 8.96875 -42.890625 C 9.019531 -41.382812 9.164062 -39.773438 9.285156 -38.019531 C 9.421875 -36.207031 9.511719 -34.777344 9.617188 -33.75 C 9.886719 -31.050781 9.953125 -29.480469 9.921875 -29.140625 C 9.847656 -28.722656 9.449219 -28.273438 8.6875 -27.71875 C 8.316406 -27.410156 7.941406 -27.101562 7.492188 -26.835938 L 6.503906 -26.144531 C 5.847656 -25.6875 5.507812 -25.257812 5.375 -24.820312 C 5.238281 -24.382812 5.261719 -23.859375 5.5625 -23.285156 C 5.863281 -22.714844 6.15625 -22.402344 6.53125 -22.25 C 6.863281 -22.015625 7.5625 -21.890625 8.566406 -21.859375 C 9.046875 -21.800781 9.464844 -21.726562 9.867188 -21.710938 C 10.222656 -21.621094 10.441406 -21.550781 10.503906 -21.570312 C 10.601562 -21.464844 10.75 -21.179688 10.894531 -20.691406 C 10.980469 -20.1875 11.132812 -19.4375 11.28125 -18.492188 C 12.011719 -12.882812 13.191406 -8.664062 14.824219 -5.835938 C 16.410156 -2.929688 18.464844 -1.351562 20.90625 -1.148438 C 21.464844 -1.046875 21.929688 -1.050781 22.292969 -1.160156 L 22.597656 -1.25 C 22.902344 -1.339844 23.328125 -1.464844 23.902344 -1.765625 C 24.550781 -2.027344 25.0625 -2.308594 25.453125 -2.558594 C 25.785156 -2.785156 26.257812 -3.191406 26.761719 -3.738281 C 27.070312 -4.027344 27.425781 -4.398438 27.71875 -4.75 C 27.953125 -5.082031 28.082031 -5.320312 28.164062 -5.476562 C 28.242188 -5.894531 28.175781 -6.339844 28.007812 -6.6875 C 27.777344 -7.015625 27.488281 -7.328125 27.011719 -7.585938 C 26.496094 -7.761719 26.097656 -7.777344 25.792969 -7.6875 C 25.425781 -7.578125 24.828125 -7.136719 24.058594 -6.382812 C 23.351562 -5.640625 22.753906 -5.199219 22.265625 -5.058594 C 21.71875 -4.894531 21.179688 -4.933594 20.582031 -5.15625 C 19.832031 -5.460938 19.164062 -5.925781 18.6875 -6.648438 C 18.210938 -7.367188 17.628906 -8.652344 16.953125 -10.503906 C 16.433594 -11.804688 16.128906 -12.839844 15.957031 -13.648438 C 15.738281 -14.378906 15.511719 -15.371094 15.335938 -16.644531 C 15.023438 -18.140625 14.902344 -19.230469 14.863281 -19.8125 C 14.839844 -20.335938 14.871094 -20.675781 15.054688 -20.730469 C 15.296875 -20.800781 16.609375 -20.394531 19.007812 -19.449219 C 21.421875 -18.441406 24.46875 -17.09375 28.269531 -15.433594 C 31.035156 -14.132812 33.3125 -13.152344 35.035156 -12.46875 C 36.714844 -11.710938 38.203125 -11.15625 39.515625 -10.75 C 40.230469 -10.5625 40.886719 -10.359375 41.523438 -10.21875 C 42.179688 -10.015625 42.816406 -9.871094 43.5 -9.808594 C 44.496094 -9.574219 45.699219 -9.53125 47.023438 -9.527344 C 48.347656 -9.519531 49.394531 -9.566406 50.265625 -9.757812 Z M 50.265625 -9.757812 "/></g></g></g><g fill="#d14d72" fill-opacity="1"><g transform="translate(133.210162, 267.362063)"><g><path d="M 1.558594 0 L 3.046875 0 L 3.046875 -5.425781 L 7.390625 -5.425781 L 7.390625 -6.910156 L 3.046875 -6.910156 L 3.046875 -12.144531 L 9.265625 -12.144531 L 9.265625 -13.632812 L 2.304688 -13.632812 C 1.894531 -13.632812 1.558594 -13.296875 1.558594 -12.886719 Z M 1.558594 0 "/></g></g></g><g fill="#d14d72" fill-opacity="1"><g transform="translate(142.714182, 267.362063)"><g><path d="M 4.609375 0.121094 C 6.527344 0.121094 8.136719 -0.910156 8.136719 -3 L 8.136719 -6.601562 C 8.136719 -8.6875 6.527344 -9.863281 4.609375 -9.863281 C 2.6875 -9.863281 1.078125 -8.6875 1.078125 -6.601562 L 2.566406 -6.601562 C 2.566406 -7.824219 3.601562 -8.375 4.609375 -8.375 C 5.617188 -8.375 6.648438 -7.824219 6.648438 -6.601562 L 6.648438 -5.472656 L 3.816406 -5.472656 C 2.375 -5.472656 1.078125 -4.703125 1.078125 -2.710938 C 1.078125 -0.742188 2.761719 0.121094 4.609375 0.121094 Z M 4.609375 -1.367188 C 3.671875 -1.367188 2.566406 -1.632812 2.566406 -2.710938 C 2.566406 -3.816406 3.214844 -3.960938 3.792969 -3.960938 L 6.648438 -3.960938 L 6.648438 -3 C 6.648438 -1.777344 5.617188 -1.367188 4.609375 -1.367188 Z M 4.609375 -1.367188 "/></g></g></g><g fill="#d14d72" fill-opacity="1"><g transform="translate(152.170206, 267.362063)"><g><path d="M 4.632812 0.121094 C 6.769531 0.121094 8.160156 -0.886719 8.160156 -2.710938 C 8.160156 -6.289062 2.566406 -4.992188 2.566406 -6.960938 C 2.566406 -8.375 3.960938 -8.375 4.535156 -8.375 C 5.566406 -8.375 6.480469 -7.945312 6.480469 -6.695312 L 7.96875 -6.695312 C 7.96875 -8.761719 6.457031 -9.863281 4.535156 -9.863281 C 2.566406 -9.863281 1.078125 -8.929688 1.078125 -6.9375 C 1.078125 -3.359375 6.671875 -4.65625 6.671875 -2.710938 C 6.671875 -1.414062 5.398438 -1.390625 4.632812 -1.390625 C 3.601562 -1.390625 2.566406 -1.777344 2.566406 -3.023438 L 1.078125 -3.023438 C 1.078125 -0.910156 2.761719 0.121094 4.632812 0.121094 Z M 4.632812 0.121094 "/></g></g></g><g fill="#d14d72" fill-opacity="1"><g transform="translate(161.290219, 267.362063)"><g><path d="M 1.558594 0 L 3.046875 0 L 3.046875 -6.671875 C 3.046875 -7.824219 4.246094 -8.375 5.230469 -8.375 C 6.265625 -8.375 7.128906 -7.824219 7.128906 -6.601562 L 7.128906 0 L 8.617188 0 L 8.617188 -6.601562 C 8.617188 -8.6875 7.152344 -9.863281 5.230469 -9.863281 C 4.558594 -9.863281 3.742188 -9.742188 3.046875 -9.144531 L 3.046875 -13.632812 L 1.558594 -13.632812 Z M 1.558594 0 "/></g></g></g><g fill="#d14d72" fill-opacity="1"><g transform="translate(171.346234, 267.362063)"><g><path d="M 2.425781 -10.800781 C 2.976562 -10.800781 3.40625 -11.207031 3.40625 -11.761719 C 3.40625 -12.3125 2.976562 -12.742188 2.425781 -12.742188 C 1.871094 -12.742188 1.464844 -12.3125 1.464844 -11.761719 C 1.464844 -11.207031 1.871094 -10.800781 2.425781 -10.800781 Z M 1.679688 0 L 3.167969 0 L 3.167969 -9.71875 L 1.679688 -9.71875 Z M 1.679688 0 "/></g></g></g><g fill="#d14d72" fill-opacity="1"><g transform="translate(176.194248, 267.362063)"><g><path d="M 4.847656 0.121094 C 6.769531 0.121094 8.375 -1.054688 8.375 -3.144531 L 8.375 -6.601562 C 8.375 -8.6875 6.769531 -9.863281 4.847656 -9.863281 C 2.929688 -9.863281 1.320312 -8.6875 1.320312 -6.601562 L 1.320312 -3.144531 C 1.320312 -1.054688 2.929688 0.121094 4.847656 0.121094 Z M 4.847656 -1.367188 C 3.839844 -1.367188 2.808594 -1.921875 2.808594 -3.144531 L 2.808594 -6.601562 C 2.808594 -7.824219 3.839844 -8.375 4.847656 -8.375 C 5.855469 -8.375 6.886719 -7.824219 6.886719 -6.601562 L 6.886719 -3.144531 C 6.886719 -1.921875 5.855469 -1.367188 4.847656 -1.367188 Z M 4.847656 -1.367188 "/></g></g></g><g fill="#d14d72" fill-opacity="1"><g transform="translate(185.890266, 267.362063)"><g><path d="M 1.441406 0 L 2.929688 0 L 2.929688 -6.601562 C 2.929688 -7.824219 3.960938 -8.375 4.96875 -8.375 C 5.976562 -8.375 7.007812 -7.824219 7.007812 -6.601562 L 7.007812 0 L 8.496094 0 L 8.496094 -6.601562 C 8.496094 -8.6875 6.886719 -9.863281 4.96875 -9.863281 C 3.046875 -9.863281 1.441406 -8.6875 1.441406 -6.601562 Z M 1.441406 0 "/></g></g></g><g fill="#d14d72" fill-opacity="1"><g transform="translate(195.826289, 267.362063)"><g><path d="M 5.855469 0.121094 C 8.832031 0.121094 10.105469 -1.726562 10.105469 -3.839844 C 10.105469 -8.0625 2.566406 -6.886719 2.566406 -9.742188 C 2.566406 -12.121094 4.34375 -12.3125 5.496094 -12.3125 C 7.511719 -12.3125 8.351562 -11.113281 8.351562 -9.382812 L 9.839844 -9.382812 C 9.839844 -12.289062 8.160156 -13.800781 5.496094 -13.800781 C 2.710938 -13.800781 1.078125 -12.480469 1.078125 -9.71875 C 1.078125 -5.257812 8.617188 -6.527344 8.617188 -3.816406 C 8.617188 -1.800781 6.9375 -1.367188 5.855469 -1.367188 C 4.441406 -1.367188 2.566406 -1.894531 2.566406 -4.273438 L 1.078125 -4.273438 C 1.078125 -1.34375 3.265625 0.121094 5.855469 0.121094 Z M 5.855469 0.121094 "/></g></g></g><g fill="#d14d72" fill-opacity="1"><g transform="translate(207.010313, 267.362063)"><g><path d="M 4.824219 0.121094 C 6.480469 0.121094 7.535156 -0.984375 7.535156 -2.257812 L 6.046875 -2.257812 C 6.046875 -1.753906 5.6875 -1.367188 4.824219 -1.367188 C 3.9375 -1.367188 3.480469 -1.847656 3.480469 -2.832031 L 3.480469 -8.230469 L 6.3125 -8.230469 L 6.3125 -9.71875 L 3.480469 -9.71875 L 3.480469 -13.65625 L 1.992188 -13.65625 L 1.992188 -9.71875 L 0.480469 -9.71875 L 0.480469 -8.230469 L 1.992188 -8.230469 L 1.992188 -2.734375 C 1.992188 -0.984375 3.167969 0.121094 4.824219 0.121094 Z M 4.824219 0.121094 "/></g></g></g><g fill="#d14d72" fill-opacity="1"><g transform="translate(214.786332, 267.362063)"><g><path d="M 4.847656 0.121094 C 6.769531 0.121094 8.375 -1.054688 8.375 -3.144531 L 8.375 -6.601562 C 8.375 -8.6875 6.769531 -9.863281 4.847656 -9.863281 C 2.929688 -9.863281 1.320312 -8.6875 1.320312 -6.601562 L 1.320312 -3.144531 C 1.320312 -1.054688 2.929688 0.121094 4.847656 0.121094 Z M 4.847656 -1.367188 C 3.839844 -1.367188 2.808594 -1.921875 2.808594 -3.144531 L 2.808594 -6.601562 C 2.808594 -7.824219 3.839844 -8.375 4.847656 -8.375 C 5.855469 -8.375 6.886719 -7.824219 6.886719 -6.601562 L 6.886719 -3.144531 C 6.886719 -1.921875 5.855469 -1.367188 4.847656 -1.367188 Z M 4.847656 -1.367188 "/></g></g></g><g fill="#d14d72" fill-opacity="1"><g transform="translate(224.48235, 267.362063)"><g><path d="M 1.441406 0 L 2.929688 0 L 2.929688 -6.910156 C 2.929688 -7.945312 3.601562 -8.375 4.464844 -8.375 C 5.328125 -8.375 5.976562 -7.945312 5.976562 -6.910156 L 7.464844 -6.910156 C 7.464844 -8.761719 6.097656 -9.863281 4.464844 -9.863281 C 2.808594 -9.863281 1.441406 -8.734375 1.441406 -7.007812 Z M 1.441406 0 "/></g></g></g><g fill="#d14d72" fill-opacity="1"><g transform="translate(232.306366, 267.362063)"><g><path d="M 4.847656 0.121094 C 6.769531 0.121094 8.375 -1.054688 8.375 -3.144531 L 6.886719 -3.144531 C 6.886719 -1.921875 5.855469 -1.367188 4.847656 -1.367188 C 3.839844 -1.367188 2.808594 -1.921875 2.808594 -3.144531 L 2.808594 -3.648438 L 7.632812 -4.945312 C 8.136719 -5.0625 8.375 -5.328125 8.375 -5.6875 L 8.375 -6.601562 C 8.375 -8.6875 6.769531 -9.863281 4.847656 -9.863281 C 2.929688 -9.863281 1.320312 -8.6875 1.320312 -6.601562 L 1.320312 -3.144531 C 1.320312 -1.054688 2.929688 0.121094 4.847656 0.121094 Z M 2.808594 -5.207031 L 2.808594 -6.601562 C 2.808594 -7.824219 3.839844 -8.375 4.847656 -8.375 C 5.855469 -8.375 6.886719 -7.824219 6.886719 -6.601562 L 6.886719 -6.238281 Z M 2.808594 -5.207031 "/></g></g></g></svg>